<svg width="31" height="30" viewBox="0 0 31 30" fill="none" xmlns="http://www.w3.org/2000/svg">
<path d="M15.5 19.5L21.6667 13.5H9.33337L15.5 19.5ZM15.5 30C13.3674 30 11.3632 29.606 9.48754 28.818C7.61185 28.031 5.98025 26.9625 4.59275 25.6125C3.20525 24.2625 2.10707 22.675 1.29821 20.85C0.488319 19.025 0.083374 17.075 0.083374 15C0.083374 12.925 0.488319 10.975 1.29821 9.15C2.10707 7.325 3.20525 5.7375 4.59275 4.3875C5.98025 3.0375 7.61185 1.9685 9.48754 1.1805C11.3632 0.3935 13.3674 0 15.5 0C17.6327 0 19.6368 0.3935 21.5125 1.1805C23.3882 1.9685 25.0198 3.0375 26.4073 4.3875C27.7948 5.7375 28.893 7.325 29.7019 9.15C30.5118 10.975 30.9167 12.925 30.9167 15C30.9167 17.075 30.5118 19.025 29.7019 20.85C28.893 22.675 27.7948 24.2625 26.4073 25.6125C25.0198 26.9625 23.3882 28.031 21.5125 28.818C19.6368 29.606 17.6327 30 15.5 30Z" fill="#FFC700"/>
</svg>
