<svg width="52" height="57" viewBox="0 0 52 57" fill="none" xmlns="http://www.w3.org/2000/svg">
<path d="M50.3956 28.2903C50.3956 43.2753 39.4623 55.2426 26.1868 55.2426C12.9114 55.2426 1.97803 43.2753 1.97803 28.2903C1.97803 13.3052 12.9114 1.33789 26.1868 1.33789C39.4623 1.33789 50.3956 13.3052 50.3956 28.2903Z" fill="white" stroke="black" stroke-width="2"/>
<g clip-path="url(#clip0_642_4)">
<path d="M25.732 44.9932L25.5408 44.9651C17.4622 43.2178 11.8225 36.6853 11.8225 29.0781V18.4539L12.3852 18.4308C17.0765 18.2387 21.5621 16.8052 25.3566 14.2859L25.7022 14.0566L26.0477 14.2859C29.8434 16.8052 34.3286 18.2387 39.0183 18.4309L39.581 18.4539V29.0785C39.581 36.6857 33.941 43.2182 25.8655 44.9648L25.732 44.9932ZM13.0006 19.4807V29.0781C13.0006 36.1486 18.2173 42.2252 25.7014 43.8901C33.1863 42.2245 38.4031 36.1483 38.4031 29.0781V19.4807C33.8279 19.2 29.4566 17.7913 25.7022 15.3858C21.9485 17.7909 17.5776 19.2 13.0006 19.4807Z" fill="black"/>
<path d="M25.7214 40.8672L25.5883 40.8467C19.676 39.5687 15.545 34.7845 15.545 29.213V21.4431L15.9201 21.4275C19.3752 21.2854 22.6781 20.2302 25.4712 18.3756L25.7017 18.2227L25.9322 18.3756C28.7269 20.2305 32.0294 21.2857 35.483 21.4275L35.858 21.4431V29.2129C35.858 34.7842 31.727 39.5683 25.8125 40.8474L25.7214 40.8672ZM16.3304 22.1279V29.2132C16.3304 34.4275 20.1803 38.9079 25.7014 40.1319C31.2252 38.9046 35.0727 34.4256 35.0727 29.2132V22.1279C31.696 21.9264 28.4693 20.8874 25.7017 19.1091C22.9361 20.8874 19.7087 21.9264 16.3304 22.1279Z" fill="black"/>
<path d="M28.3296 28.4874V27.1468C28.3296 25.8458 27.1817 24.7852 25.7724 24.7852H25.6311C24.2217 24.7852 23.0763 25.8458 23.0763 27.1468V28.4874H22.1421V34.3826H29.2606V28.4874H28.3296ZM24.0635 27.1465C24.0635 26.3493 24.7672 25.7004 25.6311 25.7004H25.7725C26.6384 25.7004 27.3392 26.3493 27.3392 27.1465V28.4871H24.0635V27.1465Z" fill="black"/>
</g>
<defs>
<clipPath id="clip0_642_4">
<rect width="33.7544" height="30.9365" fill="white" transform="translate(8.82458 14.0566)"/>
</clipPath>
</defs>
</svg>
