<svg width="52" height="57" viewBox="0 0 52 57" fill="none" xmlns="http://www.w3.org/2000/svg">
<path d="M50.3956 28.2903C50.3956 43.2753 39.4623 55.2426 26.1868 55.2426C12.9114 55.2426 1.97803 43.2753 1.97803 28.2903C1.97803 13.3052 12.9114 1.33789 26.1868 1.33789C39.4623 1.33789 50.3956 13.3052 50.3956 28.2903Z" fill="white" stroke="#CD6161" stroke-width="2"/>
<path d="M16.2541 15.5507H22.8669V13.6172H14.601V23.2849H16.2541V15.5507Z" fill="black"/>
<path d="M22.8669 23.285V17.4844H17.9073V23.285H22.8669ZM19.5605 19.4179H21.2137V21.3514H19.5605V19.4179Z" fill="black"/>
<path d="M30.7196 15.5507H37.7457V23.2849H39.3989V13.6172H30.7196V15.5507Z" fill="black"/>
<path d="M36.0925 23.285V17.4844H31.1329V23.285H36.0925ZM32.7861 19.4179H34.4393V21.3514H32.7861V19.4179Z" fill="black"/>
<path d="M22.8669 40.6863H16.2541V32.9521H14.601V42.6198H22.8669V40.6863Z" fill="black"/>
<path d="M22.8669 32.9521H17.9073V38.7527H22.8669V32.9521ZM21.2137 36.8192H19.5605V34.8857H21.2137V36.8192Z" fill="black"/>
<path d="M37.7457 40.6863H30.7196V42.6198H39.3989V32.9521H37.7457V40.6863Z" fill="black"/>
<path d="M27.8265 31.0185H34.4393V34.8856H36.0925V29.085H27.8265V31.0185Z" fill="black"/>
<path d="M36.0925 38.7526V36.8191H26.1733V29.085H17.9073V31.0185H24.5201V38.7526H36.0925Z" fill="black"/>
<path d="M26.1733 17.4844H24.5201V23.285H26.1733V17.4844Z" fill="black"/>
<path d="M17.9073 27.152H29.4797V17.4844H27.8265V25.2185H17.9073V27.152Z" fill="black"/>
<path d="M36.0925 25.2188H31.1329V27.1523H36.0925V25.2188Z" fill="black"/>
<path d="M32.7861 32.9521H31.1329V34.8857H32.7861V32.9521Z" fill="black"/>
<path d="M29.4797 32.9521H27.8265V34.8857H29.4797V32.9521Z" fill="black"/>
</svg>
