<svg width="52" height="57" viewBox="0 0 52 57" fill="none" xmlns="http://www.w3.org/2000/svg">
<path d="M50.3956 28.426C50.3956 43.4111 39.4623 55.3784 26.1868 55.3784C12.9114 55.3784 1.97803 43.4111 1.97803 28.426C1.97803 13.4409 12.9114 1.47363 26.1868 1.47363C39.4623 1.47363 50.3956 13.4409 50.3956 28.426Z" fill="white" stroke="#DEDB38" stroke-width="2"/>
<g clip-path="url(#clip0_642_2)">
<path d="M31.4726 29.3272C34.8609 29.3272 37.5715 31.7317 37.5715 34.7374C37.5715 35.7953 37.2462 36.7932 36.6499 37.6228L40.8242 41.3497L38.9268 43.0209L34.7118 39.33C33.7766 39.8469 32.6652 40.1475 31.4726 40.1475C28.0843 40.1475 25.3737 37.743 25.3737 34.7374C25.3737 31.7317 28.0843 29.3272 31.4726 29.3272ZM31.4726 31.7317C30.5739 31.7317 29.7121 32.0484 29.0767 32.612C28.4413 33.1757 28.0843 33.9402 28.0843 34.7374C28.0843 35.5345 28.4413 36.299 29.0767 36.8627C29.7121 37.4263 30.5739 37.743 31.4726 37.743C33.3565 37.743 34.8609 36.3965 34.8609 34.7374C34.8609 33.9402 34.5039 33.1757 33.8684 32.612C33.233 32.0484 32.3712 31.7317 31.4726 31.7317ZM33.5055 22.1137V27.1391C32.5975 26.9227 31.6894 26.8866 30.7949 26.9227V24.5182H26.729V27.2593L27.4473 27.7883C25.8345 28.5217 24.4927 29.6879 23.6389 31.1667C23.0425 30.7338 22.663 30.0726 22.663 29.3272C22.663 28.4375 23.2187 27.6681 24.0184 27.2593V24.5182C24.0184 23.8805 24.3039 23.2689 24.8123 22.818C25.3206 22.367 26.0101 22.1137 26.729 22.1137H33.5055ZM17.2418 36.5407V22.1137H19.9524H22.663V24.5182H19.9524V34.1362H22.663C22.6088 34.9538 22.663 35.7593 22.8935 36.5407H17.2418ZM36.2162 19.7092H14.5312V38.9452H24.0184C24.7367 39.907 25.6583 40.7486 26.7696 41.3497H14.5312C13.0268 41.3497 11.8206 40.2677 11.8206 38.9452V19.7092C11.8206 19.0715 12.1061 18.4599 12.6145 18.009C13.1228 17.558 13.8123 17.3047 14.5312 17.3047H36.2162C36.9351 17.3047 37.6245 17.558 38.1329 18.009C38.6412 18.4599 38.9268 19.0715 38.9268 19.7092V30.5776C38.2491 29.6158 37.3275 28.7742 36.2162 28.125V19.7092Z" fill="black"/>
</g>
<defs>
<clipPath id="clip0_642_2">
<rect width="32.5275" height="28.8541" fill="white" transform="translate(9.10986 14.9004)"/>
</clipPath>
</defs>
</svg>
