<svg width="64" height="40" viewBox="0 0 64 40" fill="none" xmlns="http://www.w3.org/2000/svg">
<rect y="18.1816" width="46.3768" height="3.63636" fill="#FFC700"/>
<path d="M43.5942 6.66634C39.9862 6.66634 36.526 8.0711 33.9748 10.5716C31.4236 13.0721 29.9903 16.4635 29.9903 19.9997C29.9903 23.5359 31.4236 26.9273 33.9748 29.4278C36.526 31.9283 39.9862 33.333 43.5942 33.333C47.2022 33.333 50.6624 31.9283 53.2136 29.4278C55.7648 26.9273 57.1981 23.5359 57.1981 19.9997C57.1981 16.4635 55.7648 13.0721 53.2136 10.5716C50.6624 8.0711 47.2022 6.66634 43.5942 6.66634ZM26.5894 19.9997C26.5894 10.7947 34.2024 3.33301 43.5942 3.33301C52.986 3.33301 60.599 10.7947 60.599 19.9997C60.599 29.2047 52.986 36.6663 43.5942 36.6663C34.2024 36.6663 26.5894 29.2047 26.5894 19.9997ZM44.0924 12.1547C44.4113 11.8422 44.8438 11.6667 45.2947 11.6667C45.7456 11.6667 46.178 11.8422 46.4969 12.1547L53.2988 18.8213C53.6176 19.1339 53.7967 19.5577 53.7967 19.9997C53.7967 20.4416 53.6176 20.8655 53.2988 21.178L46.4969 27.8447C46.1762 28.1483 45.7467 28.3163 45.3008 28.3125C44.8549 28.3087 44.4284 28.1334 44.1131 27.8244C43.7979 27.5154 43.619 27.0973 43.6151 26.6603C43.6113 26.2233 43.7827 25.8023 44.0924 25.488L47.9916 21.6663H35.0918C34.6408 21.6663 34.2083 21.4907 33.8893 21.1782C33.5704 20.8656 33.3913 20.4417 33.3913 19.9997C33.3913 19.5576 33.5704 19.1337 33.8893 18.8212C34.2083 18.5086 34.6408 18.333 35.0918 18.333H47.9916L44.0924 14.5113C43.7736 14.1988 43.5945 13.7749 43.5945 13.333C43.5945 12.8911 43.7736 12.4672 44.0924 12.1547Z" fill="#FFC700"/>
</svg>
